<?xml version="1.0" encoding="UTF-8" standalone="no"?>
<!-- Created with Inkscape (http://www.inkscape.org/) -->

<svg
   xmlns:dc="http://purl.org/dc/elements/1.1/"
   xmlns:cc="http://creativecommons.org/ns#"
   xmlns:rdf="http://www.w3.org/1999/02/22-rdf-syntax-ns#"
   xmlns:svg="http://www.w3.org/2000/svg"
   xmlns="http://www.w3.org/2000/svg"
   xmlns:sodipodi="http://sodipodi.sourceforge.net/DTD/sodipodi-0.dtd"
   xmlns:inkscape="http://www.inkscape.org/namespaces/inkscape"
   width="173.00014"
   height="64"
   viewBox="0 0 45.772952 16.933333"
   version="1.1"
   id="svg8"
   inkscape:version="0.92.0 r15299"
   sodipodi:docname="genpact.svg">
  <defs
     id="defs2" />
  <sodipodi:namedview
     id="base"
     pagecolor="#ffffff"
     bordercolor="#666666"
     borderopacity="1.0"
     inkscape:pageopacity="0.0"
     inkscape:pageshadow="2"
     inkscape:zoom="5.2151163"
     inkscape:cx="85.999999"
     inkscape:cy="31.5"
     inkscape:document-units="mm"
     inkscape:current-layer="layer1"
     showgrid="false"
     fit-margin-top="0"
     fit-margin-left="0"
     fit-margin-right="0"
     fit-margin-bottom="0"
     units="px"
     inkscape:window-width="1280"
     inkscape:window-height="744"
     inkscape:window-x="-4"
     inkscape:window-y="-4"
     inkscape:window-maximized="1" />
  <metadata
     id="metadata5">
    <rdf:RDF>
      <cc:Work
         rdf:about="">
        <dc:format>image/svg+xml</dc:format>
        <dc:type
           rdf:resource="http://purl.org/dc/dcmitype/StillImage" />
        <dc:title></dc:title>
      </cc:Work>
    </rdf:RDF>
  </metadata>
  <g
     inkscape:label="Layer 1"
     inkscape:groupmode="layer"
     id="layer1"
     transform="translate(-102.73393,-235.48438)">
    <g
       id="g48"
       transform="translate(0.1322915,-0.13228833)">
      <path
         id="path12"
         d="m 114.64018,239.97012 -3.00302,2.12566 -2.94958,-2.09179 -2.9538,2.09497 -2.99985,-2.12751 5.95365,-4.22249 5.9526,4.22116"
         inkscape:connector-curvature="0"
         style="fill:#ff555f;fill-rule:evenodd;stroke-width:0.26458332" />
      <path
         id="path14"
         d="m 105.80019,246.18413 v -4.11322 l -3.06626,-2.08862 v 8.29019 l 6.08542,4.14523 v -4.17724 l -3.01916,-2.05634 m 3.01916,2.26483 h 2.91041 v -4.23333 h -2.91041 z"
         inkscape:connector-curvature="0"
         style="fill:#25a5bd;fill-rule:evenodd;stroke-width:0.26458332" />
      <path
         id="path16"
         d="m 108.81935,252.41771 6.08541,-4.10104 v -4.10104 l -6.08541,4.06929 v 4.13279"
         inkscape:connector-curvature="0"
         style="fill:#1e2c4c;fill-rule:evenodd;stroke-width:0.26458332" />
      <path
         id="path18"
         d="m 111.8483,246.33229 -3.02895,-2.12275 3.01466,-2.11058 3.07075,2.11349 -3.05646,2.11984"
         inkscape:connector-curvature="0"
         style="fill:#ff555f;fill-rule:evenodd;stroke-width:0.26458332" />
      <path
         id="path20"
         d="m 121.01664,245.43377 c 0.63182,0 1.15623,-0.54028 1.15623,-1.21735 0,-0.67733 -0.52441,-1.21735 -1.15623,-1.21735 -0.6223,0 -1.14697,0.54002 -1.14697,1.21709 0,0.67733 0.52467,1.21761 1.14723,1.21761 z m -1.01336,0.96864 c 0.18654,0.35983 0.56013,0.60854 0.9869,0.60854 0.62256,0 1.12051,-0.52282 1.12051,-1.16575 v -0.0429 l -0.0177,-0.008 c -0.3466,0.33416 -0.79163,0.54001 -1.28958,0.54001 -1.06706,0 -1.92987,-0.95144 -1.92987,-2.11746 0,-1.17449 0.86281,-2.11746 1.92987,-2.11746 0.49795,0 0.94271,0.20585 1.28958,0.54875 l 0.0177,-0.009 v -0.42862 h 0.99616 v 3.63485 c 0,1.14882 -0.88054,2.07459 -2.07222,2.07459 -0.80036,0 -1.4941,-0.41142 -1.86743,-1.03716 z m 6.53654,-2.74373 0.009,-0.0172 c -0.22014,-0.39423 -0.60722,-0.65987 -1.05596,-0.65987 -0.46646,0 -0.82735,0.24871 -1.06494,0.65987 l 0.009,0.0172 z m -0.11457,1.37954 0.68659,0.65987 c -0.39608,0.39423 -0.95038,0.6342 -1.55786,0.6342 -1.21418,0 -2.18255,-0.94271 -2.18255,-2.11666 0,-1.17396 0.94192,-2.11667 2.12116,-2.11667 a 2.1087291,2.1087291 0 0 1 2.11217,2.11667 c 0,0.18864 -0.0177,0.23997 -0.0177,0.23997 h -3.22977 c 0,0.44556 0.53684,0.96838 1.15279,0.96838 0.36089,0 0.67759,-0.15425 0.91546,-0.38576 z m 2.67282,-0.76544 v 2.05951 h -0.96414 v -4.11903 h 0.96414 v 0.50165 l 0.0175,0.009 c 0.32703,-0.41355 0.76624,-0.62495 1.22238,-0.62495 1.72164,0 1.76477,1.60179 1.76477,2.09471 v 2.13862 h -0.96414 v -2.05951 c 0,-0.49292 -0.009,-1.2499 -1.00727,-1.2499 -0.56806,0 -1.0332,0.55457 -1.0332,1.2499 m 5.62822,-1.25625 c -0.63897,0 -1.15359,0.55087 -1.15359,1.23243 0,0.69057 0.51462,1.2409 1.15359,1.2409 0.62124,0 1.14485,-0.55033 1.14485,-1.2409 0,-0.68156 -0.52361,-1.23243 -1.14485,-1.23243 z m 0.21299,3.3999 c -0.50589,0 -0.9406,-0.20108 -1.29567,-0.55933 l -0.018,0.009 v 2.05396 h -0.99377 V 242.213 h 0.99377 v 0.4281 l 0.018,0.009 c 0.35507,-0.34079 0.78978,-0.5506 1.29567,-0.5506 1.06495,0 1.9259,0.9615 1.9259,2.159 0,1.19724 -0.86095,2.15874 -1.9259,2.15874 z m 4.33361,-0.99272 c 0.63182,0 1.1475,-0.53128 1.1475,-1.20808 0,-0.67707 -0.51594,-1.21709 -1.14724,-1.21709 -0.62256,0 -1.14723,0.54002 -1.14723,1.21709 0,0.6768 0.52467,1.20808 1.14723,1.20808 z m -0.21299,-3.32475 c 0.49794,0 0.94271,0.20585 1.28958,0.54848 l 0.0177,-0.009 v -0.42863 h 0.9959 v 4.01109 h -0.99616 v -0.41143 l -0.0177,-0.0172 c -0.3466,0.33417 -0.79163,0.54002 -1.28958,0.54002 -1.06706,0 -1.92987,-0.94271 -1.92987,-2.11667 0,-1.17396 0.86254,-2.11667 1.92987,-2.11667 z m 6.53653,3.59913 a 2.1701125,2.1701125 0 0 1 -1.54252,0.6342 c -1.2028,0 -2.16165,-0.94271 -2.16165,-2.11666 0,-1.17396 0.95885,-2.11667 2.16165,-2.11667 0.60113,0 1.15041,0.23998 1.54252,0.63421 l -0.68845,0.63394 a 1.1546417,1.1546417 0 0 0 -0.85407,-0.3683 c -0.66252,0 -1.18533,0.54821 -1.18533,1.21682 0,0.66833 0.52281,1.20808 1.18533,1.20808 a 1.2012083,1.2012083 0 0 0 0.87154,-0.37703 l 0.67098,0.65141 m 1.95421,-2.72098 v 3.0906 h -0.99801 v -3.0906 h -0.69162 v -0.92736 h 0.69162 v -1.80287 h 0.99801 v 1.80287 h 0.69162 v 0.92736 h -0.69162"
         inkscape:connector-curvature="0"
         style="fill:#25a5bd;fill-rule:evenodd;stroke-width:0.26458332" />
    </g>
  </g>
</svg>
